<svg width="80" height="80" viewBox="0 0 80 80" fill="none" xmlns="http://www.w3.org/2000/svg">
<path d="M18.7509 23.7507C21.5121 23.7507 23.7508 21.512 23.7508 18.7508C23.7508 15.9896 21.5121 13.7509 18.7509 13.7509C15.9892 13.7509 13.751 15.9896 13.751 18.7508C13.751 21.512 15.9892 23.7507 18.7509 23.7507ZM18.7509 16.2508C20.1312 16.2508 21.2509 17.3704 21.2509 18.7508C21.2509 20.1316 20.1312 21.2507 18.7509 21.2507C17.3701 21.2507 16.2509 20.1316 16.2509 18.7508C16.2509 17.3704 17.3701 16.2508 18.7509 16.2508Z" fill="#00A880"/>
<path d="M17.5008 36.2505C17.5008 33.4893 15.2621 31.2506 12.5009 31.2506C9.73922 31.2506 7.50098 33.4893 7.50098 36.2505C7.50098 39.0117 9.73922 41.2504 12.5009 41.2504C15.2621 41.2504 17.5008 39.0117 17.5008 36.2505ZM10.0009 36.2505C10.0009 34.8702 11.1201 33.7506 12.5009 33.7506C13.8812 33.7506 15.0009 34.8702 15.0009 36.2505C15.0009 37.6314 13.8812 38.7505 12.5009 38.7505C11.1201 38.7505 10.0009 37.6314 10.0009 36.2505Z" fill="#00A880"/>
<path d="M15.0009 48.7504C12.2392 48.7504 10.001 50.9891 10.001 53.7503C10.001 56.5115 12.2392 58.7502 15.0009 58.7502C17.7621 58.7502 20.0008 56.5115 20.0008 53.7503C20.0008 50.9891 17.7621 48.7504 15.0009 48.7504ZM15.0009 56.2503C13.6201 56.2503 12.5009 55.1311 12.5009 53.7503C12.5009 52.3699 13.6201 51.2503 15.0009 51.2503C16.3812 51.2503 17.5009 52.3699 17.5009 53.7503C17.5009 55.1311 16.3812 56.2503 15.0009 56.2503Z" fill="#00A880"/>
<path d="M61.2499 23.7507C64.0111 23.7507 66.2498 21.512 66.2498 18.7508C66.2498 15.9896 64.0111 13.7509 61.2499 13.7509C58.4882 13.7509 56.25 15.9896 56.25 18.7508C56.25 21.512 58.4882 23.7507 61.2499 23.7507ZM61.2499 16.2508C62.6303 16.2508 63.7499 17.3704 63.7499 18.7508C63.7499 20.1316 62.6303 21.2507 61.2499 21.2507C59.8691 21.2507 58.75 20.1316 58.75 18.7508C58.75 17.3704 59.8691 16.2508 61.2499 16.2508Z" fill="#00A880"/>
<path d="M62.5 36.2505C62.5 39.0117 64.7382 41.2504 67.4999 41.2504C70.2611 41.2504 72.4998 39.0117 72.4998 36.2505C72.4998 33.4893 70.2611 31.2506 67.4999 31.2506C64.7382 31.2506 62.5 33.4893 62.5 36.2505ZM69.9999 36.2505C69.9999 37.6314 68.8803 38.7505 67.4999 38.7505C66.1191 38.7505 65 37.6314 65 36.2505C65 34.8702 66.1191 33.7506 67.4999 33.7506C68.8803 33.7506 69.9999 34.8702 69.9999 36.2505Z" fill="#00A880"/>
<path d="M70.8529 45.6591C75.3792 44.0527 78.1208 39.4522 77.3796 34.7066C76.6379 29.9616 72.6238 26.4162 67.8231 26.2673C71.9144 22.6907 72.3958 16.4999 68.9071 12.3339C65.4179 8.16751 59.2388 7.55473 55.0001 10.9551V3.75108C55.0001 3.06115 54.4405 2.5011 53.7501 2.5011H26.2506C25.5602 2.5011 25.0006 3.06115 25.0006 3.75108V10.9736C20.7673 7.56352 14.5833 8.16849 11.0907 12.3335C7.59803 16.4989 8.08045 22.6932 12.1766 26.2673C7.37636 26.4162 3.36226 29.9616 2.62058 34.7066C1.87889 39.4522 4.62054 44.0527 9.14684 45.6591C5.49602 48.2977 4.06147 53.053 5.64543 57.2697C7.22841 61.4865 11.4383 64.1227 15.9236 63.7057C20.4084 63.2887 24.0602 59.922 24.839 55.4856C26.2564 57.4611 28.002 59.1794 30.0005 60.5656V67.5H18.7507C15.3005 67.5044 12.5042 70.2998 12.5008 73.7499V76.2499C12.5008 76.9403 13.0603 77.4999 13.7508 77.4999H66.2499C66.9403 77.4999 67.4999 76.9403 67.4999 76.2499V73.7499C67.4955 70.2998 64.6997 67.5044 61.25 67.5H50.0002V60.5656C51.9977 59.1794 53.7438 57.4611 55.1612 55.4856C55.9322 59.9328 59.5874 63.3121 64.0815 63.733C68.5751 64.1544 72.7947 61.5128 74.3777 57.2854C75.9617 53.0589 74.5174 48.2953 70.8529 45.6591ZM74.9998 36.2505C74.9998 40.3926 71.6414 43.7504 67.4999 43.7504C63.3574 43.7504 60 40.3926 60 36.2505C60 32.109 63.3574 28.7507 67.4999 28.7507C71.64 28.7551 74.9954 32.11 74.9998 36.2505ZM58.6773 31.5534C58.2769 30.2936 57.7813 29.0671 57.1949 27.8835C58.3716 28.4064 59.6387 28.696 60.9258 28.7346C60.0127 29.5309 59.2505 30.486 58.6773 31.5534ZM61.25 11.251C65.2328 11.2461 68.5258 14.3564 68.7469 18.3343C68.9681 22.3118 66.0419 25.7683 62.082 26.2058C58.1226 26.6428 54.5118 23.9085 53.86 19.9784C54.5016 19.9276 54.9962 19.3944 55.0001 18.7508V14.6264C56.3765 12.5146 58.729 11.2446 61.25 11.251ZM52.5001 17.5009H46.2502V5.00106H52.5001V17.5009ZM43.7503 5.00106V17.5009H36.2504V5.00106H43.7503ZM21.3224 31.5534C20.7487 30.4855 19.9865 29.5309 19.0729 28.7346C20.36 28.6955 21.6271 28.4064 22.8038 27.8835C22.2179 29.0676 21.7228 30.2946 21.3224 31.5534ZM27.5005 5.00106H33.7504V17.5009H27.5005V5.00106ZM11.2508 18.7508C11.2454 15.4389 13.4158 12.5166 16.5881 11.5644C19.7609 10.6128 23.1818 11.8579 25.0006 14.6264V18.7508C25.0035 19.3944 25.4991 19.9276 26.1402 19.9784C25.4786 23.8054 22.0045 26.4934 18.134 26.1741C14.2639 25.8552 11.2772 22.6346 11.2508 18.7508ZM5.00091 36.2505C5.00091 32.109 8.35828 28.7507 12.5008 28.7507C16.6423 28.7507 20.0007 32.109 20.0007 36.2505C20.0007 40.3926 16.6423 43.7504 12.5008 43.7504C8.36023 43.7465 5.00433 40.3911 5.00091 36.2505ZM15.0007 61.2501C10.8582 61.2501 7.50087 57.8923 7.50087 53.7503C7.50087 49.6087 10.8582 46.2504 15.0007 46.2504C19.1423 46.2504 22.5006 49.6087 22.5006 53.7503C22.4962 57.8908 19.1408 61.2462 15.0007 61.2501ZM18.3537 44.3422C19.0124 43.8652 19.612 43.311 20.1379 42.6919C20.2272 43.6196 20.3605 44.5326 20.5387 45.4311C19.8586 44.9794 19.1242 44.6137 18.3537 44.3422ZM48.0798 58.842C47.7185 59.0715 47.4997 59.4699 47.5002 59.8976V68.75C47.5002 69.4404 48.0598 70 48.7502 70H61.25C63.3208 70 64.9999 71.6792 64.9999 73.7499V74.9999H15.0007V73.7499C15.0007 71.6792 16.6789 70 18.7507 70H31.2505C31.9409 70 32.5005 69.4404 32.5005 68.75V59.8927C32.5005 59.4645 32.2817 59.0661 31.9199 58.8366C26.1099 55.1492 22.5006 47.932 22.5006 40.0005C22.3747 33.5934 24.9244 27.4226 29.5352 22.972C29.1094 25.7136 28.8467 28.4782 28.7505 31.2506C28.7505 31.941 29.3101 32.5006 30.0005 32.5006C30.6909 32.5006 31.2505 31.941 31.2505 31.2506C31.4194 27.7785 31.7954 24.3191 32.3755 20.8909C32.9321 20.5594 33.5073 20.262 34.1 20.0008H34.7905C34.2016 23.7249 33.8535 27.4826 33.7504 31.2506C33.7504 31.941 34.31 32.5006 35.0004 32.5006C35.6908 32.5006 36.2504 31.941 36.2504 31.2506C36.3652 27.4821 36.7221 23.7239 37.3202 20.0008H38.7504V31.2506C38.7504 31.941 39.3099 32.5006 40.0003 32.5006C40.6908 32.5006 41.2503 31.941 41.2503 31.2506V20.0008H42.6805C43.2776 23.7239 43.6351 27.4821 43.7503 31.2506C43.7503 31.941 44.3098 32.5006 45.0003 32.5006C45.6907 32.5006 46.2502 31.941 46.2502 31.2506C46.1462 27.4826 45.7991 23.7249 45.2102 20.0008H45.8987C46.4924 20.262 47.0701 20.5594 47.6277 20.8909C48.2068 24.3191 48.5818 27.7785 48.7502 31.2506C48.7502 31.941 49.3098 32.5006 50.0002 32.5006C50.6906 32.5006 51.2502 31.941 51.2502 31.2506C51.153 28.4782 50.8913 25.7136 50.465 22.972C55.0763 27.4226 57.6251 33.5934 57.5001 40.0005C57.5001 47.932 53.8898 55.1492 48.0798 58.8366V58.842ZM59.8618 42.6919C60.3887 43.311 60.9873 43.8652 61.646 44.3422C60.876 44.6137 60.1421 44.9794 59.461 45.4311C59.6387 44.5331 59.7725 43.6201 59.8618 42.6919ZM64.9999 61.2501C60.8574 61.2501 57.5001 57.8923 57.5001 53.7503C57.5001 49.6087 60.8574 46.2504 64.9999 46.2504C69.1415 46.2504 72.4998 49.6087 72.4998 53.7503C72.4954 57.8908 69.14 61.2462 64.9999 61.2501Z" fill="#00A880"/>
<path d="M64.9999 48.7504C62.2382 48.7504 60 50.9891 60 53.7503C60 56.5115 62.2382 58.7502 64.9999 58.7502C67.7611 58.7502 69.9998 56.5115 69.9998 53.7503C69.9998 50.9891 67.7611 48.7504 64.9999 48.7504ZM64.9999 56.2503C63.6191 56.2503 62.5 55.1311 62.5 53.7503C62.5 52.3699 63.6191 51.2503 64.9999 51.2503C66.3803 51.2503 67.4999 52.3699 67.4999 53.7503C67.4999 55.1311 66.3803 56.2503 64.9999 56.2503Z" fill="#00A880"/>
<path d="M37.1343 37.8668C36.646 37.3795 35.8545 37.3795 35.3667 37.8668C34.4668 38.8429 33.2007 39.3985 31.8736 39.3985C30.546 39.3985 29.2799 38.8429 28.38 37.8668C27.8888 37.3942 27.1095 37.4025 26.6276 37.8859C26.1466 38.3692 26.1417 39.1485 26.6168 39.6383C28.0602 41.0689 29.9928 41.8985 32.024 41.9595C33.9732 41.9185 35.8208 41.0791 37.1343 39.6383C37.3691 39.4039 37.5014 39.0851 37.5014 38.7525C37.5014 38.4205 37.3691 38.1012 37.1343 37.8668Z" fill="#00A880"/>
<path d="M53.3838 37.8668C52.8955 37.3795 52.104 37.3795 51.6162 37.8668C50.7163 38.8429 49.4502 39.3985 48.1231 39.3985C46.7955 39.3985 45.5294 38.8429 44.6295 37.8668C44.1383 37.3942 43.359 37.4025 42.8771 37.8859C42.3961 38.3692 42.3913 39.1485 42.8664 39.6383C44.3097 41.0689 46.2423 41.8985 48.2735 41.9595C50.2227 41.9185 52.0703 41.0791 53.3838 39.6383C53.6186 39.4039 53.751 39.0851 53.751 38.7525C53.751 38.4205 53.6186 38.1012 53.3838 37.8668Z" fill="#00A880"/>
<path d="M44.1164 49.1166C40.1472 53.0838 36.3113 49.5365 35.8817 49.1166C35.3905 48.6439 34.6102 48.6517 34.1292 49.1346C33.6478 49.6171 33.6415 50.3973 34.1165 50.8866C35.7308 52.4881 37.8933 53.4173 40.1663 53.4856C42.3474 53.4388 44.4142 52.4993 45.8839 50.8866C46.3576 50.3958 46.3507 49.6166 45.8688 49.1346C45.3864 48.6522 44.6066 48.6454 44.1164 49.119V49.1166Z" fill="#00A880"/>
</svg>
