<svg width="80" height="80" viewBox="0 0 80 80" fill="none" xmlns="http://www.w3.org/2000/svg">
<path d="M4.47192 8.83008L9.45825 66.1772V71.125C9.46264 74.5752 12.2581 77.3706 15.7082 77.375H28.2083C31.6584 77.3706 34.4539 74.5752 34.4583 71.125V66.1772L39.4441 8.83008L40.6711 3.92871C40.7644 3.55518 40.6809 3.15918 40.4436 2.85596C40.2068 2.55273 39.8435 2.375 39.4582 2.375H4.45825C4.07299 2.375 3.7102 2.55273 3.47241 2.85596C3.23559 3.15918 3.15209 3.55518 3.24536 3.92871L4.47192 8.83008ZM33.2585 51.125H10.6584L10.0071 43.625H33.9094L33.2585 51.125ZM33.0413 53.625L32.0623 64.875H11.8547L10.8757 53.625H33.0413ZM17.5832 67.375H26.3332V68.625C26.3332 69.3154 25.7737 69.875 25.0832 69.875H18.8332C18.1428 69.875 17.5832 69.3154 17.5832 68.625V67.375ZM31.9583 71.125C31.9583 73.1958 30.2791 74.875 28.2083 74.875H15.7082C13.6374 74.875 11.9582 73.1958 11.9582 71.125V67.375H15.0832V68.625C15.0832 70.6958 16.7624 72.375 18.8332 72.375H25.0832C27.154 72.375 28.8333 70.6958 28.8333 68.625V67.375H31.9583V71.125ZM34.1267 41.125H9.78979L7.07202 9.875H36.845L34.1267 41.125ZM37.8567 4.875L37.2317 7.375H6.68432L6.05932 4.875H37.8567Z" fill="#00A880"/>
<path d="M50.7085 77.375H68.2085C70.2793 77.375 71.9585 75.6958 71.9585 73.625V26.125C71.9556 23.6426 70.4834 21.3979 68.2085 20.4048V16.125C68.2085 15.4346 67.6489 14.875 66.9585 14.875H63.2085V9.875H75.7085C76.2139 9.875 76.67 9.57031 76.8633 9.10352C77.0567 8.63672 76.9493 8.09863 76.5923 7.74121L74.0923 5.24121C73.9014 5.05029 73.6533 4.92627 73.3863 4.88721L55.8862 2.38721C55.8272 2.37939 55.7676 2.375 55.7085 2.375H50.7085C50.0181 2.375 49.4585 2.93457 49.4585 3.625V8.625C49.4585 9.31543 50.0181 9.875 50.7085 9.875H55.7085V14.875H51.9585C51.2681 14.875 50.7085 15.4346 50.7085 16.125V20.4048C48.4336 21.3979 46.9614 23.6426 46.9585 26.125V73.625C46.9585 75.6958 48.6377 77.375 50.7085 77.375ZM69.4585 32.375H49.4585V29.875H69.4585V32.375ZM69.4585 59.875H49.4585V34.875H69.4585V59.875ZM68.2085 74.875H50.7085C50.0181 74.875 49.4585 74.3154 49.4585 73.625V62.375H69.4585V73.625C69.4585 74.3154 68.8989 74.875 68.2085 74.875ZM51.9585 4.875H55.6201L72.6197 7.30371L72.6909 7.375H51.9585V4.875ZM58.2085 9.875H60.7085V14.875H58.2085V9.875ZM53.2085 17.375H65.7085V19.875H53.2085V17.375ZM53.2085 22.375H65.7085C67.7793 22.375 69.4585 24.0542 69.4585 26.125V27.375H49.4585V26.125C49.4585 24.0542 51.1377 22.375 53.2085 22.375Z" fill="#00A880"/>
<path d="M14.4585 48.625H29.4585C30.1489 48.625 30.7085 48.0654 30.7085 47.375C30.7085 46.6846 30.1489 46.125 29.4585 46.125H14.4585C13.7681 46.125 13.2085 46.6846 13.2085 47.375C13.2085 48.0654 13.7681 48.625 14.4585 48.625Z" fill="#00A880"/>
<path d="M59.4585 69.875H54.4585V66.125C54.4585 65.4346 53.8989 64.875 53.2085 64.875C52.5181 64.875 51.9585 65.4346 51.9585 66.125V71.125C51.9585 71.8154 52.5181 72.375 53.2085 72.375H59.4585C60.1489 72.375 60.7085 71.8154 60.7085 71.125C60.7085 70.4346 60.1489 69.875 59.4585 69.875Z" fill="#00A880"/>
<path d="M65.7085 69.875H64.4585C63.7681 69.875 63.2085 70.4346 63.2085 71.125C63.2085 71.8154 63.7681 72.375 64.4585 72.375H65.7085C66.3989 72.375 66.9585 71.8154 66.9585 71.125C66.9585 70.4346 66.3989 69.875 65.7085 69.875Z" fill="#00A880"/>
<path d="M27.8136 62.3115C28.4689 62.5288 29.1755 62.1748 29.3932 61.52L30.6432 57.77C30.862 57.1142 30.5075 56.4057 29.8512 56.187C29.195 55.9692 28.487 56.3237 28.2687 56.9799L27.0187 60.73C26.9142 61.0449 26.9391 61.3886 27.0881 61.685C27.237 61.9819 27.4982 62.207 27.8136 62.3115Z" fill="#00A880"/>
</svg>
